<?xml version="1.0" standalone="no"?>
<!DOCTYPE svg PUBLIC "-//W3C//DTD SVG 20010904//EN"
 "http://www.w3.org/TR/2001/REC-SVG-20010904/DTD/svg10.dtd">
<svg version="1.0" xmlns="http://www.w3.org/2000/svg"
 width="450.000000pt" height="146.000000pt" viewBox="0 0 450.000000 146.000000"
 preserveAspectRatio="xMidYMid meet">

<g transform="translate(0.000000,146.000000) scale(0.100000,-0.100000)"
fill="#000000" stroke="none">
<path d="M683 1143 c9 -2 23 -2 30 0 6 3 -1 5 -18 5 -16 0 -22 -2 -12 -5z"/>
<path d="M1133 1143 c9 -2 23 -2 30 0 6 3 -1 5 -18 5 -16 0 -22 -2 -12 -5z"/>
<path d="M578 1123 c7 -3 16 -2 19 1 4 3 -2 6 -13 5 -11 0 -14 -3 -6 -6z"/>
<path d="M790 911 c0 -5 9 -11 20 -14 24 -6 25 -30 6 -89 -7 -24 -24 -81 -36
-128 -27 -100 -46 -137 -74 -144 -38 -10 0 -30 59 -31 64 -2 76 8 45 37 -14
13 -19 26 -14 37 8 21 53 183 54 195 0 5 3 7 6 4 3 -3 12 -61 19 -129 8 -68
19 -127 24 -132 13 -13 40 -1 48 20 7 19 129 201 146 218 6 7 7 1 3 -15 -4
-14 -14 -52 -23 -85 -21 -81 -40 -115 -63 -115 -35 0 -30 -17 8 -28 41 -11
157 -10 169 2 4 4 0 13 -10 20 -20 15 -21 28 -7 70 6 17 24 79 40 138 38 139
46 155 83 149 4 0 7 6 7 14 0 12 -15 15 -77 15 l-78 -1 -65 -97 c-36 -53 -71
-103 -77 -110 -7 -7 -13 -18 -13 -23 0 -5 -4 -9 -10 -9 -5 0 -9 3 -8 8 1 4 -1
32 -5 62 -4 30 -10 77 -13 104 -3 28 -7 53 -10 58 -7 11 -154 10 -154 -1z"/>
<path d="M1591 870 c-7 -30 -15 -63 -18 -72 -2 -10 0 -18 6 -18 6 0 10 3 9 8
-1 4 4 30 11 59 7 29 11 58 9 65 -3 7 -10 -12 -17 -42z"/>
<path d="M488 903 c-21 -5 -77 -157 -63 -171 6 -6 20 32 36 92 9 36 20 53 43
67 29 18 23 22 -16 12z"/>
<path d="M712 893 c-14 -12 -34 -66 -61 -166 -38 -137 -50 -199 -35 -184 3 3
16 48 29 99 54 212 61 231 93 250 18 12 22 18 11 18 -9 0 -26 -8 -37 -17z"/>
<path d="M1442 894 c-15 -10 -22 -25 -22 -49 0 -19 4 -36 8 -39 5 -3 6 9 4 26
-6 39 30 72 63 57 20 -10 20 -10 1 5 -24 20 -26 20 -54 0z"/>
<path d="M345 890 c3 -5 8 -10 11 -10 2 0 4 5 4 10 0 6 -5 10 -11 10 -5 0 -7
-4 -4 -10z"/>
<path d="M392 633 c-13 -48 -18 -81 -12 -85 6 -5 8 -6 6 -2 -2 3 6 38 18 77
l22 72 58 2 c83 3 83 13 -1 13 l-70 0 -21 -77z"/>
<path d="M1542 633 c-3 -51 -19 -81 -54 -104 -28 -17 -45 -20 -106 -16 -85 5
-88 -1 -6 -12 76 -11 117 2 149 44 21 27 25 42 22 77 -3 33 -4 35 -5 11z"/>
<path d="M1290 625 c0 -8 4 -15 10 -15 5 0 7 7 4 15 -4 8 -8 15 -10 15 -2 0
-4 -7 -4 -15z"/>
<path d="M1259 513 c-12 -15 -12 -16 4 -10 10 4 23 7 28 7 5 0 9 5 9 10 0 16
-26 12 -41 -7z"/>
<path d="M232 515 c8 -9 162 -12 183 -4 12 4 -23 8 -84 8 -57 1 -102 -1 -99
-4z"/>
<path d="M472 515 c8 -9 152 -12 173 -4 12 4 -20 8 -79 8 -55 1 -97 -1 -94 -4z"/>
<path d="M618 313 c7 -3 16 -2 19 1 4 3 -2 6 -13 5 -11 0 -14 -3 -6 -6z"/>
<path d="M1208 313 c7 -3 16 -2 19 1 4 3 -2 6 -13 5 -11 0 -14 -3 -6 -6z"/>
<path d="M763 293 c9 -2 23 -2 30 0 6 3 -1 5 -18 5 -16 0 -22 -2 -12 -5z"/>
<path d="M1053 293 c9 -2 23 -2 30 0 6 3 -1 5 -18 5 -16 0 -22 -2 -12 -5z"/>
</g>
</svg>
